M48
; DRILL file {KiCad 8.0.5} date 2025-02-22T06:14:57-0500
; FORMAT={-:-/ absolute / inch / decimal}
; #@! TF.CreationDate,2025-02-22T06:14:57-05:00
; #@! TF.GenerationSoftware,Kicad,Pcbnew,8.0.5
; #@! TF.FileFunction,Plated,1,2,PTH
FMAT,2
INCH
; #@! TA.AperFunction,Plated,PTH,ViaDrill
T1C0.0118
; #@! TA.AperFunction,Plated,PTH,ComponentDrill
T2C0.0295
; #@! TA.AperFunction,Plated,PTH,ComponentDrill
T3C0.0394
%
G90
G05
T1
X5.0492Y-3.9075
X5.0827Y-3.9783
X5.1122Y-4.1358
X5.435Y-4.2264
X5.4587Y-4.1555
X5.4862Y-4.0669
X5.5098Y-3.9055
X5.5217Y-3.2224
X5.5354Y-3.5866
X5.561Y-3.8583
X5.5768Y-4.0354
X5.5896Y-4.1624
X5.6083Y-3.9803
X5.6516Y-4.0709
X5.6555Y-4.1299
X5.6909Y-3.9764
X5.7657Y-3.8839
X5.8799Y-3.5
X6.1742Y-4.0758
X6.2175Y-4.2165
X6.2697Y-4.0039
X6.3268Y-4.0413
T2
X5.2618Y-3.3209
X5.2618Y-3.3996
X5.2618Y-3.4783
X5.2618Y-3.5571
X5.2618Y-3.6358
X5.2618Y-3.7146
X5.2618Y-3.939
X5.2618Y-4.0177
X5.2618Y-4.0965
X5.2618Y-4.1752
X5.2618Y-4.2539
X5.2618Y-4.3327
X5.3406Y-3.3209
X5.3406Y-3.3996
X5.3406Y-3.4783
X5.3406Y-3.5571
X5.3406Y-3.6358
X5.3406Y-3.7146
X5.3406Y-3.939
X5.3406Y-4.0177
X5.3406Y-4.0965
X5.3406Y-4.1752
X5.3406Y-4.2539
X5.3406Y-4.3327
T3
X5.604Y-3.3127
X5.604Y-3.4127
X5.604Y-3.7127
X5.804Y-3.3127
X5.804Y-3.4127
X5.804Y-3.7127
X6.0067Y-3.3047
X6.0067Y-3.4047
X6.0067Y-3.7047
X6.2067Y-3.3047
X6.2067Y-3.4047
X6.2067Y-3.7047
M30
